<svg width="16" height="16" viewBox="0 0 16 16" fill="none" xmlns="http://www.w3.org/2000/svg">
<path fill-rule="evenodd" clip-rule="evenodd" d="M13.2259 4.2776C13.4263 4.58652 13.3382 4.99935 13.0293 5.19968C11.5716 6.14501 10.5238 6.97667 9.59653 8.01029C8.666 9.04755 7.8344 10.3133 6.83814 12.1525C6.72797 12.3559 6.52026 12.4877 6.28932 12.5006C6.05837 12.5136 5.83722 12.4059 5.70497 12.2162L3.2764 8.73102C3.0659 8.42894 3.14014 8.01341 3.44222 7.80291C3.7443 7.59241 4.15983 7.66665 4.37033 7.96873L6.18867 10.5782C6.9997 9.16489 7.75402 8.06745 8.60405 7.11993C9.63687 5.96864 10.7884 5.06376 12.3039 4.081C12.6128 3.88066 13.0256 3.96869 13.2259 4.2776Z" fill="#4CBB3E"/>
</svg>
